<svg width="100" height="20" viewBox="0 0 100 20" fill="none" xmlns="http://www.w3.org/2000/svg">
<g clip-path="url(#clip0_83_49)">
<path d="M10 14.3917L15.15 17.5L13.7833 11.6417L18.3333 7.70002L12.3417 7.19169L10 1.66669L7.65834 7.19169L1.66667 7.70002L6.21667 11.6417L4.85001 17.5L10 14.3917Z" fill="#FDCC0D"/>
</g>
<g clip-path="url(#clip1_83_49)">
<path d="M30 14.3917L35.15 17.5L33.7833 11.6417L38.3333 7.70002L32.3417 7.19169L30 1.66669L27.6583 7.19169L21.6667 7.70002L26.2167 11.6417L24.85 17.5L30 14.3917Z" fill="#FDCC0D"/>
</g>
<g clip-path="url(#clip2_83_49)">
<path d="M50 14.3917L55.15 17.5L53.7833 11.6417L58.3333 7.70002L52.3417 7.19169L50 1.66669L47.6583 7.19169L41.6667 7.70002L46.2167 11.6417L44.85 17.5L50 14.3917Z" fill="#FDCC0D"/>
</g>
<g clip-path="url(#clip3_83_49)">
<path d="M70 14.3917L75.15 17.5L73.7833 11.6417L78.3333 7.70002L72.3417 7.19169L70 1.66669L67.6583 7.19169L61.6667 7.70002L66.2167 11.6417L64.85 17.5L70 14.3917Z" fill="#FDCC0D"/>
</g>
<g clip-path="url(#clip4_83_49)">
<path d="M90 14.3917L95.15 17.5L93.7833 11.6417L98.3333 7.70002L92.3417 7.19169L90 1.66669L87.6583 7.19169L81.6667 7.70002L86.2167 11.6417L84.85 17.5L90 14.3917Z" fill="#FDCC0D"/>
</g>
<defs>
<clipPath id="clip0_83_49">
<rect width="20" height="20" fill="white"/>
</clipPath>
<clipPath id="clip1_83_49">
<rect width="20" height="20" fill="white" transform="translate(20)"/>
</clipPath>
<clipPath id="clip2_83_49">
<rect width="20" height="20" fill="white" transform="translate(40)"/>
</clipPath>
<clipPath id="clip3_83_49">
<rect width="20" height="20" fill="white" transform="translate(60)"/>
</clipPath>
<clipPath id="clip4_83_49">
<rect width="20" height="20" fill="white" transform="translate(80)"/>
</clipPath>
</defs>
</svg>
